<svg width="104" height="26" viewBox="0 0 104 26" fill="none" xmlns="http://www.w3.org/2000/svg">
    <path fill-rule="evenodd" clip-rule="evenodd" d="M39.9986 8.44498H37.4177V14.1052C37.4177 15.3256 37.9212 16.4354 38.73 17.239C39.5388 18.0421 40.656 18.5407 41.8858 18.5407H47.084C48.3102 18.5407 49.4261 18.0421 50.2356 17.2396L50.2405 17.2348C51.0493 16.4311 51.5516 15.3232 51.5516 14.1052V12.1844H48.9706V14.1052C48.9706 14.6216 48.7595 15.0903 48.4179 15.4301C48.0763 15.7687 47.6035 15.9789 47.084 15.9789H41.8858C41.3688 15.9789 40.8967 15.7675 40.5538 15.4271C40.2122 15.0873 39.9986 14.6185 39.9986 14.1052V8.44498ZM45.142 11.0453H47.9692V8.46943H45.142V11.0453ZM23.1712 17.2176L23.1502 17.239C22.3414 18.0427 21.2236 18.5407 19.9944 18.5407H18.3257C17.1008 18.5407 15.9928 18.0439 15.1865 17.2433L15.1815 17.239C14.3783 16.4409 13.8766 15.3348 13.8631 14.1156L13.8618 13.9151H13.8563C13.8563 13.466 13.6525 13.0565 13.3318 12.7558C12.9865 12.4332 12.5181 12.2321 12.0201 12.2272H11.9992V12.2321H4.46816C3.95111 12.2321 3.479 12.4436 3.13614 12.784C2.79206 13.1207 2.58093 13.5888 2.58093 14.1052C2.58093 14.6216 2.79268 15.0903 3.13307 15.4301C3.47592 15.7687 3.94803 15.9789 4.46816 15.9789H12.9096V18.5407H4.46816C3.2414 18.5407 2.12544 18.0421 1.31601 17.2396L1.3117 17.2348C0.502276 16.4311 0 15.3232 0 14.1052C0 12.8891 0.503508 11.7805 1.31417 10.975C2.12113 10.169 3.23894 9.67029 4.46816 9.67029H11.9992L12.0097 9.67517L12.0405 9.67579C13.2094 9.68679 14.3001 10.1494 15.096 10.8944C15.9165 11.6632 16.4372 12.7277 16.4372 13.9151L16.4323 13.9249L16.4335 14.0954C16.4391 14.6137 16.6563 15.0885 17.0035 15.4344C17.3427 15.7705 17.8099 15.9789 18.3257 15.9789H19.9944C20.5114 15.9789 20.9835 15.7675 21.3258 15.4277C21.668 15.0879 21.881 14.6198 21.881 14.1052V9.67029H30.9035C32.1333 9.67029 33.2511 10.169 34.06 10.972C34.8688 11.775 35.371 12.8848 35.371 14.1052C35.371 15.3268 34.8688 16.4366 34.06 17.2396C33.2511 18.0421 32.1333 18.5407 30.9035 18.5407H26.3485C25.1181 18.5407 24.0009 18.0421 23.1921 17.2396L23.1712 17.2176ZM62.8651 8.49999V14.1052C62.8651 14.6192 63.0781 15.0873 63.4203 15.4271C63.7632 15.7675 64.2353 15.9789 64.7517 15.9789H76.152C76.6703 15.9789 77.1418 15.7675 77.484 15.4277C77.8263 15.0879 78.0392 14.6198 78.0392 14.1052C78.0392 13.5912 77.8263 13.1231 77.484 12.7833C77.1418 12.4436 76.6703 12.2321 76.152 12.2321H64.6748L69.4021 7.25391H72.9408L70.646 9.67029H76.152C77.3825 9.67029 78.4996 10.169 79.3085 10.972C80.1173 11.775 80.6202 12.8848 80.6202 14.1052C80.6202 15.3268 80.1173 16.4366 79.3085 17.2396C78.4996 18.0421 77.3825 18.5407 76.152 18.5407H64.7517C63.5231 18.5407 62.4053 18.0421 61.5959 17.239C60.787 16.436 60.2848 15.3268 60.2848 14.1052V8.49999H62.8651ZM53.1606 15.9789C53.6807 15.9789 54.1528 15.7687 54.4951 15.4301C54.8361 15.0903 55.0478 14.6216 55.0478 14.1052V9.63117H57.6281V14.1052C57.6281 15.3232 57.1259 16.4311 56.317 17.2348L56.3121 17.2396C55.5033 18.0421 54.3873 18.5407 53.1606 18.5407V15.9789ZM25.0165 15.4277C25.3588 15.7675 25.8309 15.9789 26.3485 15.9789H30.9035C31.4212 15.9789 31.8933 15.7675 32.2349 15.4277C32.5771 15.0879 32.7901 14.6198 32.7901 14.1052C32.7901 13.5912 32.5771 13.1231 32.2349 12.7833C31.8933 12.4436 31.4212 12.2321 30.9035 12.2321H24.4613V14.1052C24.4613 14.6198 24.6743 15.0879 25.0165 15.4277Z" fill="#00A754"/>
    <path fill-rule="evenodd" clip-rule="evenodd" d="M91.8597 14.6318C92.3424 14.5028 92.4026 14.0565 92.7636 13.832C92.9121 13.7392 93.0837 13.6889 93.2591 13.6876C93.3666 13.6863 93.4741 13.7043 93.5753 13.7417C94.1168 13.9236 94.1002 14.4976 94.6597 14.6408C95.1423 14.7685 95.4189 14.4099 95.8426 14.3893C96.0167 14.3828 96.1908 14.4228 96.3432 14.5079C96.4341 14.5595 96.5173 14.6266 96.5852 14.7066C96.9564 15.1309 96.6581 15.6172 97.0614 16.0171C97.4237 16.3654 97.8398 16.1899 98.2149 16.3808C98.3698 16.4595 98.5004 16.5808 98.59 16.7304C98.6425 16.822 98.6797 16.92 98.7001 17.0232C98.8064 17.5701 98.2956 17.8513 98.4467 18.3931C98.576 18.8703 99.0305 18.9271 99.2571 19.2766C99.3531 19.4198 99.4043 19.5888 99.4068 19.7629C99.4068 19.8687 99.3876 19.9745 99.3518 20.0738C99.1713 20.6026 98.5836 20.591 98.4377 21.1354C98.3071 21.6126 98.672 21.8835 98.6925 22.2975C98.7001 22.4717 98.6592 22.6419 98.5708 22.7916C98.5183 22.8819 98.4492 22.9631 98.3686 23.0302C97.9371 23.3939 97.4391 23.1011 97.0371 23.4997C96.6761 23.8493 96.8566 24.2646 96.6671 24.6335C96.5826 24.7883 96.4584 24.9147 96.3061 24.9986C96.2113 25.0502 96.1115 25.0863 96.0065 25.1056C95.4496 25.2088 95.1692 24.7083 94.6149 24.8567C94.1322 24.9857 94.0733 25.432 93.7123 25.6551C93.5638 25.7493 93.3922 25.7996 93.2181 25.7996C93.1106 25.7996 93.003 25.7828 92.9006 25.7467C92.359 25.5648 92.3744 24.9908 91.8175 24.8464C91.3323 24.7199 91.0557 25.0785 90.6333 25.0979C90.4579 25.1056 90.2863 25.0643 90.1327 24.9792C90.0405 24.9276 89.9598 24.8618 89.8907 24.7819C89.5182 24.3562 89.8177 23.8712 89.4132 23.4713C89.0521 23.1231 88.6361 23.2972 88.2597 23.1063C88.1048 23.0276 87.9767 22.9064 87.8858 22.7567C87.8321 22.6665 87.7949 22.5684 87.777 22.4652C87.6708 21.9196 88.179 21.6397 88.0292 21.0967C87.8986 20.6194 87.4454 20.5639 87.2175 20.2144C87.1228 20.0686 87.0716 19.8997 87.0703 19.7281C87.0703 19.621 87.087 19.5166 87.1241 19.4159C87.3046 18.8858 87.891 18.8974 88.0382 18.3544C88.1675 17.8784 87.8039 17.6062 87.7834 17.1909C87.777 17.018 87.818 16.8465 87.9038 16.6969C87.9575 16.6053 88.0267 16.524 88.106 16.4557C88.5388 16.0919 89.0355 16.386 89.4388 15.9874C89.8011 15.6379 89.6193 15.2225 89.8011 14.8536C89.883 14.7001 90.0098 14.5737 90.1621 14.4899C90.2543 14.4383 90.3542 14.4009 90.4591 14.3828C91.0186 14.2783 91.299 14.7775 91.8508 14.6318H91.8597Z" fill="#FFCE32"/>
    <path fill-rule="evenodd" clip-rule="evenodd" d="M93.0818 9.01758L87.9531 4.78289V9.31555L93.2367 13.6766L104.002 4.78676V0L93.0818 9.01758Z" fill="#00A754"/>
</svg>
